<svg width="55" height="55" viewBox="0 0 55 55" fill="none" xmlns="http://www.w3.org/2000/svg">
<path d="M50.5625 27.5C50.5625 40.7825 39.7945 51.5625 26.5 51.5625C13.2055 51.5625 2.4375 40.7825 2.4375 27.5C2.4375 14.2055 13.2055 3.4375 26.5 3.4375C39.7945 3.4375 50.5625 14.2055 50.5625 27.5Z" fill="black"/>
<path d="M38.2493 22.5504C38.1184 22.6284 35.0007 24.2743 35.0007 27.9237C35.1476 32.0857 38.935 33.5452 39 33.5452C38.935 33.6232 38.4282 35.5335 36.9269 37.536C35.7354 39.2609 34.4129 41 32.4048 41C30.4946 41 29.8089 39.8504 27.6048 39.8504C25.2378 39.8504 24.568 41 22.7558 41C20.7476 41 19.3272 39.1677 18.0708 37.459C16.4385 35.2225 15.051 31.7129 15.0021 28.3431C14.9691 26.5574 15.329 24.8021 16.2425 23.3111C17.532 21.2296 19.834 19.8167 22.348 19.7701C24.2741 19.7083 25.9884 21.0281 27.1639 21.0281C28.2905 21.0281 30.3966 19.7701 32.7796 19.7701C33.8081 19.7711 36.551 20.0658 38.2493 22.5504ZM27.001 19.4135C26.6582 17.7828 27.6048 16.1521 28.4864 15.1119C29.6129 13.8539 31.3922 13 32.9265 13C33.0245 14.6307 32.4037 16.2301 31.2942 17.3949C30.2986 18.6529 28.5844 19.5999 27.001 19.4135Z" fill="white"/>
</svg>
