<svg width="24" height="24" viewBox="0 0 24 24" fill="none" xmlns="http://www.w3.org/2000/svg">
<path d="M4.9941 3.90637C4.7382 3.90637 4.4706 3.99238 4.2753 4.18738C3.8848 4.57838 3.8848 5.23437 4.2753 5.62537L10.5566 11.9064L4.2753 18.1874C3.8848 18.5784 3.8848 19.2344 4.2753 19.6254C4.6659 20.0154 5.3223 20.0154 5.7129 19.6254L11.9941 13.3444L18.2753 19.6254C18.6659 20.0154 19.3223 20.0154 19.7129 19.6254C20.1034 19.2344 20.1034 18.5784 19.7129 18.1874L13.4316 11.9064L19.7129 5.62537C20.1034 5.23437 20.1034 4.57838 19.7129 4.18738C19.5176 3.99238 19.2499 3.90637 18.9941 3.90637C18.7382 3.90637 18.4707 3.99238 18.2753 4.18738L11.9941 10.4684L5.7129 4.18738C5.5176 3.99238 5.25 3.90637 4.9941 3.90637Z" fill="white"/>
</svg>
