<svg width="16" height="16" viewBox="0 0 16 16" fill="none" xmlns="http://www.w3.org/2000/svg">
<path d="M7.33301 1.30212C6.22841 1.30212 5.33308 2.19546 5.33301 3.30212V4.01046H4.66634C4.05667 3.98592 3.12094 4.38419 2.77054 5.36466L1.99967 5.34379C1.63147 5.34379 1.33294 5.64159 1.33301 6.01046C1.33301 6.37932 1.63147 6.67745 1.99967 6.67679H2.66634V7.34345H1.99967C1.63147 7.34345 1.33294 7.64145 1.33301 8.01012C1.33301 8.37945 1.63147 8.67679 1.99967 8.67679H2.66634V9.34345H1.99967C1.63147 9.34345 1.33294 9.64145 1.33301 10.0101C1.33301 10.3795 1.63147 10.6775 1.99967 10.6768H2.66634V11.3435H1.99967C1.63147 11.3435 1.33294 11.6415 1.33301 12.0101C1.33301 12.3795 1.63147 12.6775 1.99967 12.6768H2.66634C2.66634 13.7815 3.56174 14.6775 4.66634 14.6768H9.33301C10.4376 14.6768 11.333 13.7815 11.333 12.6768V12.0101L11.9997 11.9895C13.1043 11.9895 13.9996 11.0961 13.9997 9.98945V3.30212C13.9997 2.19552 13.1042 1.30199 11.9997 1.30212H7.33301ZM11.9997 2.63546C12.3679 2.63546 12.6664 2.93326 12.6663 3.30212V9.96879C12.6663 10.3375 12.3679 10.6355 11.9997 10.6355L11.333 10.6561V6.01046C11.333 4.90586 10.4376 4.01046 9.33301 4.01046H6.66634V3.32292C6.66634 2.95412 6.96481 2.65625 7.33301 2.65625L11.9997 2.63546ZM4.66634 5.34379H9.33301C9.70121 5.34379 9.99968 5.64226 9.99968 6.01046V11.9895V12.6768C9.99968 13.0455 9.70121 13.3441 9.33301 13.3435H4.66634C4.29814 13.3435 3.99967 13.0455 3.99967 12.6768V11.9895V11.3435V6.01046C3.99967 5.82606 4.06654 5.65186 4.18721 5.53132C4.30781 5.41066 4.48227 5.34379 4.66634 5.34379Z" fill="#656667"/>
</svg>
