<svg width="16" height="16" viewBox="0 0 16 16" fill="none" xmlns="http://www.w3.org/2000/svg">
<path d="M10.333 1.95312C8.67614 1.95312 7.33301 3.29646 7.33301 4.95312C7.33301 6.60979 8.67614 7.95312 10.333 7.95312C11.9899 7.95312 13.333 6.60979 13.333 4.95312C13.333 3.29646 11.9899 1.95312 10.333 1.95312ZM5.33301 2.61979C3.86027 2.61979 2.66634 3.81379 2.66634 5.28646C2.66634 6.75913 3.86027 7.95312 5.33301 7.95312C5.88594 7.95312 6.40967 7.78446 6.85381 7.4738C7.15561 7.26313 7.23141 6.83846 7.02047 6.53646C6.80954 6.23446 6.40561 6.1798 6.10381 6.39046C5.88187 6.5458 5.61047 6.61979 5.33301 6.61979C4.59661 6.61979 3.99967 6.02313 3.99967 5.28646C3.99967 4.54979 4.59661 3.95312 5.33301 3.95312C5.55047 3.95312 5.74941 4.00112 5.93714 4.09912C6.26381 4.26912 6.68394 4.15447 6.85381 3.8278C7.02374 3.5018 6.88881 3.08112 6.56221 2.91178C6.18547 2.71578 5.76594 2.61979 5.33301 2.61979ZM10.333 3.28646C11.2535 3.28646 11.9997 4.03246 11.9997 4.95312C11.9997 5.87379 11.2535 6.61979 10.333 6.61979C9.41254 6.61979 8.66634 5.87379 8.66634 4.95312C8.66634 4.03246 9.41254 3.28646 10.333 3.28646ZM3.37467 8.84912C2.15194 9.35379 1.33301 10.5905 1.33301 11.9531V13.2865C1.33301 13.6545 1.63147 13.9531 1.99967 13.9531H4.66634C5.03454 13.9531 5.33301 13.6545 5.33301 13.2865C5.33301 12.9185 5.03454 12.6198 4.66634 12.6198H2.66634V11.9531C2.66634 11.2038 3.11081 10.5158 3.62167 10.2131C4.10214 10.4158 4.61041 10.5691 5.06241 10.6071C5.42934 10.6385 5.76021 10.3618 5.79134 9.99447C5.82247 9.6278 5.55734 9.31714 5.19047 9.28581C4.89781 9.26114 4.57794 9.17312 4.20801 9.01579C4.11867 8.97779 4.06681 8.94779 3.89554 8.86979C3.72761 8.79313 3.54521 8.77845 3.37467 8.84912ZM8.04134 8.84912C6.81861 9.35379 5.99967 10.5905 5.99967 11.9531V13.2865C5.99967 13.6545 6.29814 13.9531 6.66634 13.9531H13.9997C14.3679 13.9531 14.6663 13.6545 14.6663 13.2865V11.9531C14.6663 10.6225 13.8429 9.4158 12.6247 8.89046C12.4532 8.81646 12.2534 8.81446 12.083 8.89046C11.4931 9.15513 10.9185 9.28646 10.333 9.28646C9.74954 9.28646 9.17287 9.14779 8.56221 8.86979C8.39427 8.79313 8.21187 8.77845 8.04134 8.84912ZM8.29767 10.2131C8.92754 10.4518 9.68694 10.6198 10.333 10.6198C10.974 10.6198 11.702 10.4631 12.3191 10.2351C12.9209 10.5778 13.333 11.2191 13.333 11.9531V12.6198H7.33301V11.9531C7.33301 11.1765 7.77027 10.5218 8.29767 10.2131Z" fill="#656667"/>
</svg>
