<svg width="24" height="24" viewBox="0 0 24 24" fill="none" xmlns="http://www.w3.org/2000/svg">
<path d="M7.49902 2.99072C4.46142 2.99072 1.99902 5.45273 1.99902 8.49073C1.99902 11.6747 3.81252 14.6787 6.81152 17.4287C7.83512 18.3667 8.93722 19.1897 10.0302 19.9287C10.4133 20.1867 10.7716 20.4208 11.0928 20.6158C11.2886 20.7348 11.4177 20.8208 11.499 20.8658C11.801 21.0338 12.197 21.0338 12.499 20.8658C12.5803 20.8208 12.7094 20.7348 12.9052 20.6158C13.2264 20.4208 13.5847 20.1867 13.9678 19.9287C15.0608 19.1897 16.1629 18.3667 17.1865 17.4287C20.1855 14.6787 21.999 11.6747 21.999 8.49073C21.999 5.45273 19.5366 2.99072 16.499 2.99072C14.7738 2.99072 13.0894 3.93074 12.0302 5.30274C10.9974 3.90674 9.31892 2.99072 7.49902 2.99072Z" fill="#474747"/>
</svg>
