<svg width="24" height="24" viewBox="0 0 24 24" fill="none" xmlns="http://www.w3.org/2000/svg">
<path d="M9.99902 1.95316C5.58072 1.95316 1.99912 5.53517 1.99902 9.95317C1.99902 14.3712 5.58072 17.9532 9.99902 17.9532C11.8357 17.9532 13.5594 17.3042 14.9098 16.2632L19.2802 20.6722C19.6708 21.0622 20.3272 21.0622 20.7178 20.6722C21.1083 20.2812 21.1083 19.6252 20.7178 19.2342L16.3118 14.8582C17.3526 13.5082 17.999 11.7902 17.999 9.95317C17.999 5.53517 14.4173 1.95316 9.99902 1.95316ZM9.99902 3.95316C13.3127 3.95316 15.9989 6.63917 15.999 9.95317C15.999 13.2672 13.3127 15.9532 9.99902 15.9532C6.68532 15.9532 3.99912 13.2672 3.99902 9.95317C3.99902 6.63917 6.68532 3.95316 9.99902 3.95316Z" fill="#585858"/>
</svg>
